<?xml version="1.0" standalone="no"?><!DOCTYPE svg PUBLIC "-//W3C//DTD SVG 1.1//EN" "http://www.w3.org/Graphics/SVG/1.1/DTD/svg11.dtd"><svg t="1509709747801" class="icon" style="" viewBox="0 0 1024 1024" version="1.1" xmlns="http://www.w3.org/2000/svg" p-id="1864" xmlns:xlink="http://www.w3.org/1999/xlink" width="200" height="200"><defs><style type="text/css"></style></defs><path d="M571.733333 512l392.533334-392.533333c17.066667-17.066667 17.066667-42.666667 0-59.733334s-42.666667-17.066667-59.733334 0L512 452.266667 119.466667 59.733333c-17.066667-17.066667-42.666667-17.066667-59.733334 0s-17.066667 42.666667 0 59.733334l392.533334 392.533333-392.533334 392.533333c-17.066667 17.066667-17.066667 42.666667 0 59.733334 8.533333 8.533333 21.333333 12.8 29.866667 12.8s21.333333-4.266667 29.866667-12.8l392.533333-392.533334 392.533333 392.533334c8.533333 8.533333 21.333333 12.8 29.866667 12.8s21.333333-4.266667 29.866667-12.8c17.066667-17.066667 17.066667-42.666667 0-59.733334L571.733333 512z" p-id="1865" fill="#515151"></path></svg>