<?xml version="1.0" standalone="no"?><!DOCTYPE svg PUBLIC "-//W3C//DTD SVG 1.1//EN" "http://www.w3.org/Graphics/SVG/1.1/DTD/svg11.dtd"><svg t="1509716983746" class="icon" style="" viewBox="0 0 1024 1024" version="1.1" xmlns="http://www.w3.org/2000/svg" p-id="2784" xmlns:xlink="http://www.w3.org/1999/xlink" width="200" height="200"><defs><style type="text/css"></style></defs><path d="M511.507511 62.36076c-247.299023 0-447.779865 200.480842-447.779864 447.77884 0 247.297999 200.480842 447.778841 447.779864 447.778841 247.296975 0 447.778841-200.481866 447.778841-447.778841 0-247.296975-200.481866-447.778841-447.778841-447.77884z m226.656471 618.350968c15.409474 15.526197 15.37159 40.558145-0.084983 55.969668-7.726239 7.647399-17.803318 11.526901-27.920329 11.526901-10.162062 0-20.326171-3.879501-28.043195-11.604717L510.703761 564.567296 340.634361 732.799846a39.71856 39.71856 0 0 1-27.84149 11.412226c-10.193802 0-20.326171-3.927624-28.082103-11.767514-15.378758-15.534388-15.216984-40.513095 0.309214-55.892876L454.859008 508.566913 286.355128 339.577711c-15.37159-15.457597-15.37159-40.482378 0.084983-55.954309 15.487289-15.456573 40.513095-15.386949 55.961476 0.077815l168.688179 169.227767 171.258131-169.38954c15.526197-15.379781 40.635961-15.2477 55.969667 0.293855 15.333707 15.533364 15.216984 40.606268-0.309213 55.937927L566.911994 508.952917l171.251988 171.758811z" fill="#8a8a8a" p-id="2785"></path></svg>