<?xml version="1.0" standalone="no"?><!DOCTYPE svg PUBLIC "-//W3C//DTD SVG 1.1//EN" "http://www.w3.org/Graphics/SVG/1.1/DTD/svg11.dtd"><svg t="1509293721711" class="icon" style="" viewBox="0 0 1024 1024" version="1.1" xmlns="http://www.w3.org/2000/svg" p-id="11262" xmlns:xlink="http://www.w3.org/1999/xlink" width="200" height="200"><defs><style type="text/css"></style></defs><path d="M920 72H716.8V4.8h270.4v270.4h-67.2V72z m25.6 388.8L512 89.6 80 460.8l-48-48L512 0l480 412.8-46.4 48z m-772.8 496h203.2v-272h270.4v270.4h203.2V548.8h67.2V1024h-336V752h-136v272H104V548.8h67.2v408z" fill="#2c2c2c" p-id="11263"></path><path d="M920 72H716.8V4.8h270.4v270.4h-67.2V72z m25.6 388.8L512 89.6 80 460.8l-48-48L512 0l480 412.8-46.4 48z m-772.8 496h203.2v-272h270.4v270.4h203.2V548.8h67.2V1024h-336V752h-136v272H104V548.8h67.2v408z" fill="#2c2c2c" p-id="11264"></path></svg>