<?xml version="1.0" standalone="no"?><!DOCTYPE svg PUBLIC "-//W3C//DTD SVG 1.1//EN" "http://www.w3.org/Graphics/SVG/1.1/DTD/svg11.dtd"><svg t="1509361898723" class="icon" style="" viewBox="0 0 1024 1024" version="1.1" xmlns="http://www.w3.org/2000/svg" p-id="7382" xmlns:xlink="http://www.w3.org/1999/xlink" width="200" height="200"><defs><style type="text/css"></style></defs><path d="M896.66 192H129.34a63.94 63.94 0 0 0-63.94 64v447.6a63.94 63.94 0 0 0 63.94 63.94h767.32a63.94 63.94 0 0 0 63.94-63.94V256a63.94 63.94 0 0 0-63.94-64zM704.83 495.78H529v175.84a16 16 0 0 1-32 0V495.78H321.17a16 16 0 0 1 0-32H497V288a16 16 0 0 1 32 0v175.81h175.83a16 16 0 0 1 0 32z" fill="#ed4040" p-id="7383"></path></svg>