<?xml version="1.0" standalone="no"?><!DOCTYPE svg PUBLIC "-//W3C//DTD SVG 1.1//EN" "http://www.w3.org/Graphics/SVG/1.1/DTD/svg11.dtd"><svg t="1509292469067" class="icon" style="" viewBox="0 0 1024 1024" version="1.1" xmlns="http://www.w3.org/2000/svg" p-id="6348" xmlns:xlink="http://www.w3.org/1999/xlink" width="200" height="200"><defs><style type="text/css"></style></defs><path d="M680.451244 1023.983724l0-45.313133 75.505611 0 0 45.313133-75.505611 0Z" fill="#d81e06" p-id="6349"></path><path d="M999.775362 952.237931c-13.932486-203.144111-152.85044-371.847637-340.629754-430.865388a19.531523 19.531523 0 0 1-4.88288-34.831215c91.944643-61.198771 143.589243-178.143762 106.397969-302.640943A256.123366 256.123366 0 0 0 588.490325 12.022987C407.302901-41.786358 241.952286 92.525412 241.952286 265.477045a265.107866 265.107866 0 0 0 121.518623 222.984882 19.531523 19.531523 0 0 1-4.427145 34.961426C173.689615 584.247769 37.196824 752.23514 24.175809 954.077149q-1.025405 15.804257-1.041681 31.868935c0 12.207202 12.028163 36.263527 24.072602 36.263526 198.749518-0.146486 371.196586-0.472012 547.712721-0.78126 0 0 26.644252 1.725284 26.644252-22.477528s-26.644252-21.972963-26.644252-21.972963c-135.53249 0.244144-253.909793 0.585946-403.537532 0.667327l-123.699643 0.113934q0.195315-10.498193 0.895195-20.817347c12.597832-194.826938 155.194223-360.519354 346.684525-402.919035l90.219358-19.987258a19.531523 19.531523 0 0 1 8.138135 0l89.812451 18.685157c193.687599 40.34887 338.546391 205.943629 351.990589 402.560956v0.211592a19.531523 19.531523 0 0 1-19.352483 20.654585c-37.549352 0.26042-80.714017 0.472012-128.175617 0.634774 0 0-18.880472 0-18.880472 22.054344s18.880472 22.412422 18.880472 22.412423c65.560811-0.227868 122.950935-0.537117 169.045328-0.944024 11.393388-0.113934 23.926115-22.786776 23.926115-34.326651s-0.358078-22.575185-1.09051-33.740705zM594.854346 468.393288l-85.841041 37.126169-86.264225-35.807791a220.494614 220.494614 0 0 1-136.411409-204.267174c0-121.860425 99.15503-220.999178 220.999178-220.999178s221.064283 99.122477 221.064283 220.999178a220.966625 220.966625 0 0 1-133.546786 202.948796z" fill="#d81e06" p-id="6350"></path></svg>