<?xml version="1.0" standalone="no"?><!DOCTYPE svg PUBLIC "-//W3C//DTD SVG 1.1//EN" "http://www.w3.org/Graphics/SVG/1.1/DTD/svg11.dtd"><svg t="1509367946467" class="icon" style="" viewBox="0 0 1024 1024" version="1.1" xmlns="http://www.w3.org/2000/svg" p-id="2945" xmlns:xlink="http://www.w3.org/1999/xlink" width="200" height="200"><defs><style type="text/css"></style></defs><path d="M668.327724 736.704441c-53.108524 34.42229-116.402317 54.436193-184.399448 54.436193-187.503228 0-339.501903-152.026924-339.501904-339.533682 0-187.501462 151.998676-339.501903 339.501904-339.501904 187.474979 0 339.501903 152.000441 339.501903 339.501904 0 97.144055-40.808166 184.791393-106.215282 246.70102l166.617158 166.617159c12.178538 12.175007 11.938428 32.18891 0.243642 43.883697-12.056717 12.053186-31.348524 12.295062-43.883697-0.241876l-171.864276-171.862511zM483.928276 729.414621c153.416386 0 277.774124-124.421297 277.774124-277.805904 0-153.412855-124.359503-277.774124-277.774124-277.774124S206.154152 298.195862 206.154152 451.608717c0 153.384607 124.359503 277.805903 277.774124 277.805904z" fill="#8a8a8a" p-id="2946"></path></svg>