<?xml version="1.0" standalone="no"?><!DOCTYPE svg PUBLIC "-//W3C//DTD SVG 1.1//EN" "http://www.w3.org/Graphics/SVG/1.1/DTD/svg11.dtd"><svg t="1509360634301" class="icon" style="" viewBox="0 0 1024 1024" version="1.1" xmlns="http://www.w3.org/2000/svg" p-id="4095" xmlns:xlink="http://www.w3.org/1999/xlink" width="200" height="200"><defs><style type="text/css"></style></defs><path d="M768 288.01113 448 288.01113l0 64L768 352.01113 768 288.01113zM768 480.01113 448 480.01113l0 64L768 544.01113 768 480.01113zM768 672.01113 448 672.01113l0 64L768 736.01113 768 672.01113zM192 0l0 256L0 256 0 1024l1024 0L1024 0 192 0zM960 960 64 960l0-640 128 0 0 512L256 832l0-768 704 0L960 960z" p-id="4096" fill="#2c2c2c"></path></svg>